<?xml version="1.0" encoding="UTF-8"?><svg id="a" xmlns="http://www.w3.org/2000/svg" width="80mm" height="55mm" viewBox="0 0 226.77 155.91"><defs><style>.b{fill:#1d1d1b;stroke:#1d1d1b;stroke-miterlimit:10;}</style></defs><rect class="b" x="49.64" y="10.26" width="19.52" height="141.11"/><path class="b" d="M14.8,37.09l8.48,21.26s45.89-33.33,69.98-21.26c19.08,9.56,13.46,46.7,1.72,55.18-15.52,11.21-37.07-13.79-37.07-13.79v27.11s29.44,20.31,48.41,11.09c24.12-11.73,32.39-80.87,3.08-99.84C80.85-1.64,14.8,37.09,14.8,37.09Z"/><path class="b" d="M141.9,130.64c-2.69,8.24-17.93-1.12-17.93-1.12l-3.92,17.94s23.29,10.54,36.55-3.71c10.59-11.38,3.33-40.66,2.55-74.81-.59-25.96-3.5-45.93,11.66-46.34,21.57-.58,24.04,38.82,24.04,38.82l17.22-5.84s-3.65-51.11-36.88-51.06c-33.23,.05-36.94,27.75-36.14,40.21,1.38,21.44,6.64,74.33,2.85,85.9Z"/><path class="b" d="M176.96,69.55s-5.95,4.41-8.4,5.44c-9.64,4.05-17.78,1.51-21.11-.58v22.19c18.61,8.66,46.27-15.42,46.27-15.42l-16.76-11.64Z"/></svg>